<svg width="26" height="26" viewBox="0 0 26 26" fill="none" xmlns="http://www.w3.org/2000/svg">
<path d="M15.06 7.21999C15.1867 7.21999 15.3134 7.26665 15.4134 7.36665C15.6067 7.55999 15.6067 7.87999 15.4134 8.07332L11.0667 12.42C10.7467 12.74 10.7467 13.26 11.0667 13.58L15.4133 17.9267C15.6067 18.12 15.6067 18.44 15.4133 18.6333C15.22 18.8267 14.9 18.8267 14.7067 18.6333L10.36 14.2867C10.02 13.9467 9.82668 13.4867 9.82668 13C9.82668 12.5133 10.0134 12.0533 10.36 11.7133L14.7067 7.36665C14.8067 7.27332 14.9334 7.21999 15.06 7.21999Z" fill="white" fill-opacity="0.87"/>
</svg>
